<svg viewBox="-50 -396 217 418" role="img" aria-label="Map of Manhattan taxi zones shaded by the share of generous tips" xmlns="http://www.w3.org/2000/svg" xmlns:c2pa="http://c2pa.org/manifest"><metadata><c2pa:manifest>AAAWgmp1bWIAAAAeanVtZGMycGEAEQAQgAAAqgA4m3EDYzJwYQAAABZcanVtYgAAAEdqdW1kYzJtYQARABCAAACqADibcQN1cm46YzJwYTo5Nzc5OWRhYS1hOGY2LTRlOWUtOGZjNi1lNDc2Y2U1ZjU1MzAAAAADl2p1bWIAAAApanVtZGMyYXMAEQAQgAAAqgA4m3EDYzJwYS5hc3NlcnRpb25zAAAAALxqdW1iAAAARGp1bWRjYm9yABEAEIAAAKoAOJtxE2MycGEuaW5ncmVkaWVudC52MwAAAAAYYzJzaNcBvowqGjdK8x2PgjNU0lsAAABwY2JvcqNpZGM6Zm9ybWF0bWltYWdlL3N2Zyt4bWxqaW5zdGFuY2VJRHgseG1wOmlpZDoxMTY3ODAyYi1lOTNjLTQ2YTMtYThhNS01NWU4ODI5ODE3ZmJscmVsYXRpb25zaGlwaHBhcmVudE9mAAAB4mp1bWIAAABBanVtZGNib3IAEQAQgAAAqgA4m3ETYzJwYS5hY3Rpb25zLnYyAAAAABhjMnNorGc0vUNldkMyUOX9hLFRXAAAAZljYm9yomdhY3Rpb25zgqJmYWN0aW9ua2MycGEub3BlbmVkanBhcmFtZXRlcnOha2luZ3JlZGllbnRzgaJjdXJseC1zZWxmI2p1bWJmPWMycGEuYXNzZXJ0aW9ucy9jMnBhLmluZ3JlZGllbnQudjNkaGFzaFggId3LaPZbctwseK43RceBvoRmn4Y+6mBoBA5hxgdwOrmkZmFjdGlvbngdY29tLmFudGhyb3BpYy5jbGF1ZGUucHJvdmlkZWRqcGFyYW1ldGVyc6F4H2NvbS5hbnRocm9waWMub3JpZ2luLWNvbmZpZGVuY2VndW5rbm93bmtkZXNjcmlwdGlvbnhmQ2xhdWRlIHByb3ZpZGVkIHRoaXMgZmlsZSBhdCB0aGUgcmVxdWVzdCBvZiBhIHVzZXIgYW5kIG1heSBoYXZlIGNyZWF0ZWQgb3IgbW9kaWZpZWQgdGhlIGZpbGUgY29udGVudHMubXNvZnR3YXJlQWdlbnShZG5hbWVmQ2xhdWRlcmFsbEFjdGlvbnNJbmNsdWRlZPUAAADIanVtYgAAAEBqdW1kY2JvcgARABCAAACqADibcRNjMnBhLmhhc2guZGF0YQAAAAAYYzJzaPgAcg9umm3CusWofGYBL4IAAACAY2JvcqVjYWxnZnNoYTI1NmNwYWRNAAAAAAAAAAAAAAAAAGRoYXNoWCBHnAXitJSjAnwGQ24fpVqADS5QZaGmeGmzS7rKPv5IYmRuYW1lbmp1bWJmIG1hbmlmZXN0amV4Y2x1c2lvbnOBomVzdGFydBjbZmxlbmd0aBkeBAAAAj5qdW1iAAAAJ2p1bWRjMmNsABEAEIAAAKoAOJtxA2MycGEuY2xhaW0udjIAAAACD2Nib3KlY2FsZ2ZzaGEyNTZpc2lnbmF0dXJleE1zZWxmI2p1bWJmPS9jMnBhL3VybjpjMnBhOjk3Nzk5ZGFhLWE4ZjYtNGU5ZS04ZmM2LWU0NzZjZTVmNTUzMC9jMnBhLnNpZ25hdHVyZWppbnN0YW5jZUlEeCx4bXA6aWlkOjkxMzAyODM4LWNiYmQtNDcyNC05OGI3LTU5MDg0Y2E2YWUzNXJjcmVhdGVkX2Fzc2VydGlvbnODomN1cmx4LXNlbGYjanVtYmY9YzJwYS5hc3NlcnRpb25zL2MycGEuaW5ncmVkaWVudC52M2RoYXNoWCAh3cto9lty3Cx4rjdFx4G+hGafhj7qYGgEDmHGB3A6uaJjdXJseCpzZWxmI2p1bWJmPWMycGEuYXNzZXJ0aW9ucy9jMnBhLmFjdGlvbnMudjJkaGFzaFggrYjQmGE6g3/+DCDDOAmCATjVwVw4dmvsEWoTNv7eblqiY3VybHgpc2VsZiNqdW1iZj1jMnBhLmFzc2VydGlvbnMvYzJwYS5oYXNoLmRhdGFkaGFzaFggolT5zqQjdr1l7IuPS/xXUcwMxcjOQhke3rCOkuhGoyp0Y2xhaW1fZ2VuZXJhdG9yX2luZm+jZG5hbWVvQW50aHJvcGljIEZpbGVzZ3ZlcnNpb25lMS4wLjBrc3BlY1ZlcnNpb25lMi40LjAAABA4anVtYgAAAChqdW1kYzJjcwARABCAAACqADibcQNjMnBhLnNpZ25hdHVyZQAAABAIY2JvctKEWQISogEmGCFZAgowggIGMIIBjaADAgECAhRA5aAK7sI50L64g/oGQgU9Z1UTADAKBggqhkjOPQQDAzBJMRcwFQYDVQQKEw5BbnRocm9waWMsIFBCQzEuMCwGA1UEAxMlQW50aHJvcGljIENvbnRlbnQgQ3JlZGVudGlhbHMgUm9vdCBDQTAeFw0yNjA4MDcxODQzNTZaFw0yODA4MDYxOTQzNTZaMEQxFzAVBgNVBAoTDkFudGhyb3BpYywgUEJDMSkwJwYDVQQDEyBBbnRocm9waWMgQ2xhdWRlIENvbnRlbnQgU2lnbmluZzBZMBMGByqGSM49AgEGCCqGSM49AwEHA0IABJh6CmvLUBgFFNU0vUKlOVtE6djd17L5SuwX0LemFisBM3dkd/3cyjxFA3Qo5S46fX0/ihY0VZ7mfb9KF703t5OjWDBWMA4GA1UdDwEB/wQEAwIHgDAVBgNVHSUEDjAMBgorBgEEAYPoXgIBMAwGA1UdEwEB/wQCMAAwHwYDVR0jBBgwFoAUzlHiBIFOZFsj+OPEz5o+nMHXXMIwCgYIKoZIzj0EAwMDZwAwZAIwMXMdFJ4BetLLVY7ORuE9noqbbAZOZn/aArXyTwFAZfKrPzxF2vPoJNf1+UCdg1XGAjBwX1zd9WGqYkqmL5SFqw1QySjr1zJfpJM9+1rdDwSPLMOPOjKuiXjoU/pUUeG9RwmhY3BhZFkNngAAAAAAAAAAAAAAAAAAAAAAAAAAAAAAAAAAAAAAAAAAAAAAAAAAAAAAAAAAAAAAAAAAAAAAAAAAAAAAAAAAAAAAAAAAAAAAAAAAAAAAAAAAAAAAAAAAAAAAAAAAAAAAAAAAAAAAAAAAAAAAAAAAAAAAAAAAAAAAAAAAAAAAAAAAAAAAAAAAAAAAAAAAAAAAAAAAAAAAAAAAAAAAAAAAAAAAAAAAAAAAAAAAAAAAAAAAAAAAAAAAAAAAAAAAAAAAAAAAAAAAAAAAAAAAAAAAAAAAAAAAAAAAAAAAAAAAAAAAAAAAAAAAAAAAAAAAAAAAAAAAAAAAAAAAAAAAAAAAAAAAAAAAAAAAAAAAAAAAAAAAAAAAAAAAAAAAAAAAAAAAAAAAAAAAAAAAAAAAAAAAAAAAAAAAAAAAAAAAAAAAAAAAAAAAAAAAAAAAAAAAAAAAAAAAAAAAAAAAAAAAAAAAAAAAAAAAAAAAAAAAAAAAAAAAAAAAAAAAAAAAAAAAAAAAAAAAAAAAAAAAAAAAAAAAAAAAAAAAAAAAAAAAAAAAAAAAAAAAAAAAAAAAAAAAAAAAAAAAAAAAAAAAAAAAAAAAAAAAAAAAAAAAAAAAAAAAAAAAAAAAAAAAAAAAAAAAAAAAAAAAAAAAAAAAAAAAAAAAAAAAAAAAAAAAAAAAAAAAAAAAAAAAAAAAAAAAAAAAAAAAAAAAAAAAAAAAAAAAAAAAAAAAAAAAAAAAAAAAAAAAAAAAAAAAAAAAAAAAAAAAAAAAAAAAAAAAAAAAAAAAAAAAAAAAAAAAAAAAAAAAAAAAAAAAAAAAAAAAAAAAAAAAAAAAAAAAAAAAAAAAAAAAAAAAAAAAAAAAAAAAAAAAAAAAAAAAAAAAAAAAAAAAAAAAAAAAAAAAAAAAAAAAAAAAAAAAAAAAAAAAAAAAAAAAAAAAAAAAAAAAAAAAAAAAAAAAAAAAAAAAAAAAAAAAAAAAAAAAAAAAAAAAAAAAAAAAAAAAAAAAAAAAAAAAAAAAAAAAAAAAAAAAAAAAAAAAAAAAAAAAAAAAAAAAAAAAAAAAAAAAAAAAAAAAAAAAAAAAAAAAAAAAAAAAAAAAAAAAAAAAAAAAAAAAAAAAAAAAAAAAAAAAAAAAAAAAAAAAAAAAAAAAAAAAAAAAAAAAAAAAAAAAAAAAAAAAAAAAAAAAAAAAAAAAAAAAAAAAAAAAAAAAAAAAAAAAAAAAAAAAAAAAAAAAAAAAAAAAAAAAAAAAAAAAAAAAAAAAAAAAAAAAAAAAAAAAAAAAAAAAAAAAAAAAAAAAAAAAAAAAAAAAAAAAAAAAAAAAAAAAAAAAAAAAAAAAAAAAAAAAAAAAAAAAAAAAAAAAAAAAAAAAAAAAAAAAAAAAAAAAAAAAAAAAAAAAAAAAAAAAAAAAAAAAAAAAAAAAAAAAAAAAAAAAAAAAAAAAAAAAAAAAAAAAAAAAAAAAAAAAAAAAAAAAAAAAAAAAAAAAAAAAAAAAAAAAAAAAAAAAAAAAAAAAAAAAAAAAAAAAAAAAAAAAAAAAAAAAAAAAAAAAAAAAAAAAAAAAAAAAAAAAAAAAAAAAAAAAAAAAAAAAAAAAAAAAAAAAAAAAAAAAAAAAAAAAAAAAAAAAAAAAAAAAAAAAAAAAAAAAAAAAAAAAAAAAAAAAAAAAAAAAAAAAAAAAAAAAAAAAAAAAAAAAAAAAAAAAAAAAAAAAAAAAAAAAAAAAAAAAAAAAAAAAAAAAAAAAAAAAAAAAAAAAAAAAAAAAAAAAAAAAAAAAAAAAAAAAAAAAAAAAAAAAAAAAAAAAAAAAAAAAAAAAAAAAAAAAAAAAAAAAAAAAAAAAAAAAAAAAAAAAAAAAAAAAAAAAAAAAAAAAAAAAAAAAAAAAAAAAAAAAAAAAAAAAAAAAAAAAAAAAAAAAAAAAAAAAAAAAAAAAAAAAAAAAAAAAAAAAAAAAAAAAAAAAAAAAAAAAAAAAAAAAAAAAAAAAAAAAAAAAAAAAAAAAAAAAAAAAAAAAAAAAAAAAAAAAAAAAAAAAAAAAAAAAAAAAAAAAAAAAAAAAAAAAAAAAAAAAAAAAAAAAAAAAAAAAAAAAAAAAAAAAAAAAAAAAAAAAAAAAAAAAAAAAAAAAAAAAAAAAAAAAAAAAAAAAAAAAAAAAAAAAAAAAAAAAAAAAAAAAAAAAAAAAAAAAAAAAAAAAAAAAAAAAAAAAAAAAAAAAAAAAAAAAAAAAAAAAAAAAAAAAAAAAAAAAAAAAAAAAAAAAAAAAAAAAAAAAAAAAAAAAAAAAAAAAAAAAAAAAAAAAAAAAAAAAAAAAAAAAAAAAAAAAAAAAAAAAAAAAAAAAAAAAAAAAAAAAAAAAAAAAAAAAAAAAAAAAAAAAAAAAAAAAAAAAAAAAAAAAAAAAAAAAAAAAAAAAAAAAAAAAAAAAAAAAAAAAAAAAAAAAAAAAAAAAAAAAAAAAAAAAAAAAAAAAAAAAAAAAAAAAAAAAAAAAAAAAAAAAAAAAAAAAAAAAAAAAAAAAAAAAAAAAAAAAAAAAAAAAAAAAAAAAAAAAAAAAAAAAAAAAAAAAAAAAAAAAAAAAAAAAAAAAAAAAAAAAAAAAAAAAAAAAAAAAAAAAAAAAAAAAAAAAAAAAAAAAAAAAAAAAAAAAAAAAAAAAAAAAAAAAAAAAAAAAAAAAAAAAAAAAAAAAAAAAAAAAAAAAAAAAAAAAAAAAAAAAAAAAAAAAAAAAAAAAAAAAAAAAAAAAAAAAAAAAAAAAAAAAAAAAAAAAAAAAAAAAAAAAAAAAAAAAAAAAAAAAAAAAAAAAAAAAAAAAAAAAAAAAAAAAAAAAAAAAAAAAAAAAAAAAAAAAAAAAAAAAAAAAAAAAAAAAAAAAAAAAAAAAAAAAAAAAAAAAAAAAAAAAAAAAAAAAAAAAAAAAAAAAAAAAAAAAAAAAAAAAAAAAAAAAAAAAAAAAAAAAAAAAAAAAAAAAAAAAAAAAAAAAAAAAAAAAAAAAAAAAAAAAAAAAAAAAAAAAAAAAAAAAAAAAAAAAAAAAAAAAAAAAAAAAAAAAAAAAAAAAAAAAAAAAAAAAAAAAAAAAAAAAAAAAAAAAAAAAAAAAAAAAAAAAAAAAAAAAAAAAAAAAAAAAAAAAAAAAAAAAAAAAAAAAAAAAAAAAAAAAAAAAAAAAAAAAAAAAAAAAAAAAAAAAAAAAAAAAAAAAAAAAAAAAAAAAAAAAAAAAAAAAAAAAAAAAAAAAAAAAAAAAAAAAAAAAAAAAAAAAAAAAAAAAAAAAAAAAAAAAAAAAAAAAAAAAAAAAAAAAAAAAAAAAAAAAAAAAAAAAAAAAAAAAAAAAAAAAAAAAAAAAAAAAAAAAAAAAAAAAAAAAAAAAAAAAAAAAAAAAAAAAAAAAAAAAAAAAAAAAAAAAAAAAAAAAAAAAAAAAAAAAAAAAAAAAAAAAAAAAAAAAAAAAAAAAAAAAAAAAAAAAAAAAAAAAAAAAAAAAAAAAAAAAAAAAAAAAAAAAAAAAAAAAAAAAAAAAAAAAAAAAAAAAAAAAAAAAAAAAAAAAAAAAAAAAAAAAAAAAAAAAAAAAAAAAAAAAAAAAAAAAAAAAAAAAAAAAAAAAAAAAAAAAAAAAAAAAAAAAAAAAAAAAAAAAAAAAAAAAAAAAAAAAAAAAAAAAAAAAAAAAAAAAAAAAAAAAAAAAAAAAAAAAAAAAAAAAAAAAAAAAAAAAAAAAAAAAAAAAAAAAAAAAAAAAAAAAAAAAAAAAAAAAAAAAAAAAAAAAAAAAAAAAAAAAAAAAAAAAAAAAAAAAAAAAAAAAAAAAAAAAAAAAAAAAAAAAAAAAAAAAAAAAAAAAAAAAAAAAAAAAAAAAAAAAAAAAAAAAAAAAAAAAAAAAAAAAAAAAAAAAAAAAAAAAAAAAAAAAAAAAAAAAAAAAAAAAAAAAAAAAAAAAAAAAAAAAAAAAAAAAAAAAAAAAAAAAAAAAAAAAAAAAAAAAAAAAAAAAAAAAAAAAAAAAAAAAAAAAAAAAAAAAAAAAAAAAAAAAAAAAAAAAAAAAAAAAAAAAAAAAAAAAAAAAAAAAAAAAAAAAAAAAAAAAAAAAAAAAAAAAAAAAAAAAAAAAAAAAAAAAAAAAAAAAAAAAAAAAAAAAAAAAAAAAAAAAAAAAAAAAAAAAAAAAAAAAAAAAAAAAAAAAAAAAAAAAAAAAAAAAAAAAAAAAAAAAAAAAAAAAAAAAAAAAAAAAAAAAAAAAAAAAAAAAAAAAAAAAAAAAAAAAAAAAAAAAAAAAAAAAAAAAAAAAAAAAAAAAAAAAAAAAAAAAAAAAAAAAAAAAAAAAAAAAAAAAAAAAAAAAAAAAAAAAAAAAAAAAAAAAAAAAAAAAAAAAAAAAAAAAAAAAAAAAAAAAAAAAAAAAAAAAAAAAAAAAAAAAAAAAAAAAAAAAAAAAAAAAAAAAAAAAAAAAAAAAAAAAAAAAAAAAAAAAAAAAAAAAAAAAAAAAAAAAAAAAAAAAAAAAAAAAAAAAAAAAAAAAAAAAAAAAAAAAAAAAAAAAAAAAAAAAAAAAAAAAAAAAAAAAAAAAAAAAAAAAAAAAAAAAAAAAAAAAAAAAAAAAAAAAAAAAAAAAAAAAAAAAAAAAAAAAAAAAAAAAAAAAAAAAAAAAAAAAAAAAAAAAAAAAAAAAAAAAAAAAAAAAAAAAAPZYQK3FS2trBY/96SMfsldGmpYYH+mqeU75AmNf3b12w0cAElLNJEI0Px1bGOwJorqf3dmzfMxbS+r0UKs/LyNRmmk=</c2pa:manifest></metadata><path class="fa" style="fill-opacity:0.40" d="M46.6 -59.1L44.2 -41.5L27.0 -47.2L36.6 -64.8Z"/><path class="fa" style="fill-opacity:0.12" d="M-26.1 -10.6L-23.8 -9.9L-23.0 -2.5L-23.7 -0.2L-29.4 -7.7Z"/><path class="fa" style="fill-opacity:0.25" d="M-20.8 -41.9L-27.8 -10.4L-30.8 -9.2L-29.2 -10.3L-31.5 -10.4L-32.3 -13.4L-30.3 -17.2L-31.4 -17.7L-29.6 -28.2L-27.7 -26.7L-27.2 -29.5L-29.6 -28.8L-27.9 -41.0L-22.0 -40.3Z"/><path class="fa" style="fill-opacity:0.31" d="M69.8 -221.3L66.6 -215.7L45.2 -227.4L48.2 -232.7Z"/><path class="fa" style="fill-opacity:0.12" d="M79.9 -245.2L97.1 -235.6L95.5 -232.6L92.9 -234.1L91.3 -231.3L89.8 -228.5L92.4 -227.1L84.7 -213.2L67.3 -222.5L69.6 -226.8L69.7 -232.3L75.1 -242.1L77.4 -240.8Z"/><path class="fa" style="fill-opacity:0.12" d="M109.5 -299.6L108.1 -292.3L110.4 -262.9L109.3 -257.8L101.7 -243.9L107.1 -240.9L102.5 -232.6L79.9 -245.2L84.7 -252.4L89.9 -266.8L91.5 -265.9L101.3 -282.3L102.3 -285.4L99.8 -286.8L102.3 -292.2Z"/><path class="fa" style="fill-opacity:0.59" d="M84.7 -213.2L45.0 -141.4L30.6 -150.6L69.8 -221.3Z"/><path class="fa" style="fill-opacity:0.44" d="M4.2 -31.0L12.4 -31.7L13.5 -21.0L1.3 -17.5L-6.1 -25.3L-9.8 -26.4L0.1 -39.6L6.6 -35.7Z"/><path class="fa" style="fill-opacity:0.68" d="M29.4 -148.3L14.0 -120.4L4.5 -125.6L19.9 -153.5Z"/><path class="fa" style="fill-opacity:0.57" d="M5.5 -161.7L19.9 -153.5L7.5 -131.2L-6.3 -139.9L-1.6 -139.5L-5.2 -142.4L0.1 -139.5L1.4 -141.3L-3.4 -145.0L2.4 -143.0L2.9 -144.2L-2.6 -147.3L3.2 -144.9L4.4 -147.0L-1.1 -150.1L4.7 -147.7L5.9 -149.8L0.4 -152.9L4.9 -151.2L5.7 -152.7L2.1 -155.8L6.1 -153.6L6.8 -157.2L8.4 -157.2L4.8 -159.6L9.3 -159.2Z"/><path class="fa" style="fill-opacity:0.63" d="M14.0 -120.4L-4.2 -87.5L-13.7 -92.7L4.5 -125.6Z"/><path class="fa" style="fill-opacity:0.12" d="M121.4 -214.3L120.6 -213.9L120.6 -214.1ZM122.3 -220.3L121.6 -221.2L122.3 -220.4ZM122.5 -220.7L122.2 -220.9L122.5 -220.7ZM122.6 -221.4L121.7 -221.4L121.9 -221.8ZM110.4 -262.9L109.9 -239.0L118.4 -222.4L118.4 -212.9L116.6 -208.3L108.3 -201.7L103.8 -204.2L102.3 -201.4L94.6 -205.7L96.9 -209.9L86.2 -215.9L92.4 -227.1L89.8 -228.5L92.9 -234.1L95.5 -232.6L97.1 -235.6L102.5 -232.6L107.1 -240.9L101.7 -243.9L110.0 -259.2L109.4 -263.3Z"/><path class="fa" style="fill-opacity:0.31" d="M94.6 -205.7L102.3 -201.4L103.8 -204.2L108.3 -201.7L104.9 -196.6L106.4 -195.4L104.8 -196.2L100.4 -187.6L94.2 -182.3L73.8 -193.4L86.2 -215.9L96.9 -209.9Z"/><path class="fa" style="fill-opacity:0.60" d="M27.1 -47.4L12.3 -53.1L16.8 -75.8L36.6 -64.8Z"/><path class="fa" style="fill-opacity:0.25" d="M-8.4 -19.3L-3.3 -10.4L-5.5 -12.4L-5.0 -10.5L-6.1 -11.9L-7.7 -10.5L-5.8 -8.4L-8.9 -9.5L-7.1 -6.6L-9.4 -9.0L-11.0 -8.1L-8.8 -5.6L-9.2 -5.3L-11.3 -7.8L-13.0 -6.7L-16.5 -12.8L-20.9 -14.9L-15.1 -24.0Z"/><path class="fa" style="fill-opacity:0.13" d="M-16.5 -12.8L-12.7 -6.6L-15.5 -4.3L-12.7 -2.9L-14.4 -1.2L-16.0 -4.1L-18.6 -3.2L-18.1 -0.5L-18.6 -2.0L-22.8 -0.3L-23.8 -10.0L-22.1 -10.0L-20.9 -14.9Z"/><path class="fa" style="fill-opacity:0.71" d="M14.3 -98.6L5.3 -82.2L-4.2 -87.5L4.8 -103.9Z"/><path class="fa" style="fill-opacity:0.62" d="M26.5 -120.7L20.4 -109.5L10.9 -114.8L17.0 -125.9Z"/><path class="fa" style="fill-opacity:0.67" d="M29.4 -69.1L16.8 -75.8L26.6 -95.3L31.9 -92.3L28.9 -86.9L36.6 -82.6Z"/><path class="fa" style="fill-opacity:0.70" d="M14.4 -60.6L5.7 -65.0L7.4 -67.6L-0.1 -72.4L5.3 -82.2L16.8 -75.8Z"/><path class="fa" style="fill-opacity:0.63" d="M12.4 -53.2L-4.7 -62.4L-0.1 -72.4L7.4 -67.6L5.7 -65.0L14.1 -59.6Z"/><path class="fa" style="fill-opacity:0.12" d="M102.3 -285.4L91.5 -265.9L86.6 -268.6L85.8 -267.3L83.5 -268.6L82.0 -265.8L67.5 -272.0L72.9 -281.5L75.8 -281.3L83.1 -295.7Z"/><path class="fa" style="fill-opacity:0.60" d="M-17.8 -64.0L-3.6 -61.7L-8.9 -48.0L-18.0 -56.7L-20.0 -53.5L-19.4 -56.9L-25.4 -58.0L-19.3 -58.2Z"/><path class="fa" style="fill-opacity:0.63" d="M47.2 -94.7L45.9 -78.8L42.6 -79.8L45.4 -78.1L44.1 -76.9L28.9 -86.9L36.5 -100.6Z"/><path class="fa" style="fill-opacity:0.52" d="M69.1 -128.7L63.4 -131.2L78.9 -159.1L87.6 -154.3Z"/><path class="fa" style="fill-opacity:0.64" d="M63.8 -131.7L55.7 -135.4L71.2 -163.4L78.9 -159.1Z"/><path class="fa" style="fill-opacity:0.68" d="M30.9 -149.0L19.9 -153.5L32.2 -175.8L41.7 -170.6Z"/><path class="fa" style="fill-opacity:0.59" d="M24.9 -179.9L32.2 -175.8L19.9 -153.5L6.3 -162.3L10.1 -161.0L18.6 -175.3L14.1 -175.1L18.5 -175.7L19.8 -179.1L23.9 -176.7Z"/><path class="fa" style="fill-opacity:0.47" d="M7.0 -36.6L2.4 -37.6L-3.1 -42.7L5.4 -56.0L12.3 -53.1Z"/><path class="fa" style="fill-opacity:0.45" d="M27.0 -47.2L24.9 -42.0L22.1 -43.1L16.3 -31.7L4.2 -31.0L12.3 -53.1Z"/><path class="fa" style="fill-opacity:0.37" d="M60.5 -204.6L57.9 -204.2L39.4 -216.2L45.2 -227.4L66.6 -215.7Z"/><path class="fa" style="fill-opacity:0.12" d="M67.5 -271.9L82.0 -265.8L83.5 -268.6L89.9 -266.8L84.7 -252.4L79.9 -245.2L73.9 -251.1L72.9 -249.4L67.6 -257.4L63.3 -259.8L68.7 -267.3L67.4 -270.6L69.2 -268.1L70.2 -270.1Z"/><path class="fa" style="fill-opacity:0.60" d="M-13.0 -92.3L-8.6 -89.9L-11.8 -63.3L-24.0 -62.6L-23.5 -67.5L-18.6 -67.0L-18.3 -71.1L-18.2 -72.6L-23.3 -73.3L-17.9 -73.6L-20.0 -74.9L-18.0 -75.4L-17.5 -83.7L-18.6 -84.5L-17.3 -86.2L-20.6 -87.5L-19.1 -89.3L-20.3 -89.3L-21.1 -89.6L-15.8 -89.6L-20.2 -91.9Z"/><path class="fa" style="fill-opacity:0.66" d="M48.0 -134.1L36.1 -115.3L26.5 -120.7L37.2 -140.0Z"/><path class="fa" style="fill-opacity:0.67" d="M55.7 -135.4L42.6 -111.7L36.1 -115.3L50.4 -138.4Z"/><path class="fa" style="fill-opacity:0.68" d="M31.1 -149.2L44.0 -142.1L50.4 -138.4L48.0 -134.1L37.2 -140.0L35.7 -137.3L26.2 -142.5Z"/><path class="fa" style="fill-opacity:0.66" d="M31.9 -105.1L26.6 -95.3L15.8 -101.3L26.5 -120.7L31.9 -117.7L26.6 -108.0Z"/><path class="fa" style="fill-opacity:0.18" d="M71.6 -251.5L79.9 -245.2L77.4 -240.8L75.1 -242.1L69.7 -232.3L69.6 -226.8L67.3 -222.5L48.2 -232.7L63.3 -259.8L67.6 -257.4Z"/><path class="fa" style="fill-opacity:0.65" d="M48.0 -103.2L44.2 -96.3L36.5 -100.6L31.9 -92.3L26.6 -95.3L31.9 -105.1L26.6 -108.0L31.9 -117.7L42.6 -111.7L40.3 -107.5Z"/><path class="fa" style="fill-opacity:0.62" d="M20.4 -109.5L14.3 -98.6L4.8 -103.9L10.9 -114.8Z"/><path class="fa" style="fill-opacity:0.24" d="M-8.3 -26.4L1.3 -17.5L-2.0 -15.1L-1.0 -12.0L-2.4 -10.7L-8.4 -19.3L-15.1 -24.0Z"/><path class="fa" style="fill-opacity:0.55" d="M-2.5 -43.6L-9.0 -48.5L-3.6 -61.7L5.4 -56.0Z"/><path class="fa" style="fill-opacity:0.42" d="M41.5 -77.9L44.3 -68.8L47.5 -64.6L47.3 -58.6L29.1 -69.0L35.9 -80.9Z"/><path class="fa" style="fill-opacity:0.65" d="M68.8 -128.2L58.7 -113.5L48.0 -121.4L55.7 -135.4Z"/><path class="fa" style="fill-opacity:0.70" d="M35.7 -137.3L26.5 -120.7L17.0 -125.9L26.2 -142.5Z"/><path class="fa" style="fill-opacity:0.48" d="M-18.4 -56.7L0.1 -39.6L-8.1 -27.4L-13.9 -25.0L-22.9 -30.1L-20.8 -41.9L-24.3 -44.6L-21.6 -44.7Z"/><path class="fa" style="fill-opacity:0.39" d="M27.0 -47.2L44.2 -41.5L39.8 -27.4L37.0 -23.4L19.4 -20.1L18.8 -21.9L13.4 -21.1L12.4 -31.7L16.3 -31.7L22.1 -43.1L24.9 -42.0Z"/><path class="fa" style="fill-opacity:0.58" d="M59.8 -103.0L59.1 -102.2L59.8 -103.1ZM48.0 -121.4L58.7 -113.5L48.0 -95.5L44.2 -96.3L48.0 -103.2L40.3 -107.5Z"/><path class="fa" style="fill-opacity:0.66" d="M16.7 -76.8L5.3 -82.2L15.8 -101.3L26.6 -95.3Z"/><path class="fa" style="fill-opacity:0.60" d="M84.5 -187.4L69.6 -160.5L58.9 -166.5L73.8 -193.4Z"/><path class="fa" style="fill-opacity:0.69" d="M69.6 -160.5L55.7 -135.4L45.0 -141.4L58.9 -166.5Z"/><path class="fa" style="fill-opacity:0.54" d="M59.8 -203.2L51.1 -187.6L30.2 -199.1L39.4 -216.2Z"/><path class="fa" style="fill-opacity:0.67" d="M30.2 -199.1L51.1 -187.6L41.7 -170.6L24.9 -179.9L23.9 -176.7L19.8 -179.1L24.2 -187.8L23.1 -189.4L21.5 -187.5L23.1 -189.7L24.3 -187.9L23.7 -189.6L25.6 -190.4L23.4 -190.3L25.7 -190.5Z"/><path class="fa" style="fill-opacity:0.12" d="M96.7 -334.2L107.2 -330.4L106.1 -329.0L114.4 -324.3L107.5 -311.8L108.3 -306.5L99.7 -290.1L99.5 -287.0L83.1 -295.7L89.9 -316.6L88.5 -331.0L94.8 -329.6Z"/><path class="fa" style="fill-opacity:0.62" d="M-7.3 -137.9L-3.7 -135.8L-2.6 -137.8L7.5 -131.2L-13.7 -92.7L-20.2 -95.8L-15.9 -96.1L-14.6 -98.7L-19.7 -99.3L-19.5 -101.2L-15.8 -100.7L-19.2 -103.4L-15.2 -104.2L-18.9 -105.6L-15.1 -105.1L-14.9 -106.5L-18.7 -107.1L-16.6 -107.7L-15.9 -109.9L-18.0 -110.7L-15.4 -110.0L-14.2 -114.1L-15.6 -115.2L-14.1 -114.7L-16.7 -116.2L-16.6 -116.5L-13.9 -115.2L-8.0 -127.2L-11.7 -130.3L-10.8 -131.8L-6.5 -130.6L-7.2 -131.8L-3.9 -135.4Z"/><path class="fa" style="fill-opacity:0.64" d="M5.3 -82.2L-4.7 -62.4L-11.8 -63.3L-8.6 -89.9Z"/><path class="fa" style="fill-opacity:0.28" d="M-22.2 -11.1L-27.8 -10.6L-22.9 -30.1L-14.3 -25.1Z"/><path class="fa" style="fill-opacity:0.49" d="M93.8 -182.2L96.6 -169.2L95.2 -164.3L87.6 -154.3L78.9 -159.1L92.2 -183.1ZM102.9 -179.0L104.1 -177.0L100.8 -175.1Z"/><path class="fa" style="fill-opacity:0.61" d="M92.2 -183.1L78.9 -159.1L71.2 -163.4L84.5 -187.4Z"/><path class="s" d="M46.6 -59.1L44.2 -41.5L27.0 -47.2L36.6 -64.8ZM136.6 -154.1L163.4 -148.3L153.8 -133.1L156.3 -131.7L149.7 -116.5L137.4 -118.5L124.0 -114.7L126.5 -118.7L105.4 -131.7L110.1 -138.2L105.1 -141.3L106.7 -144.9L102.4 -147.0L106.4 -148.9L108.5 -147.4L111.0 -151.4L126.3 -142.4L129.8 -148.0L133.8 -145.5L135.9 -149.0L133.5 -150.6ZM127.2 -168.4L126.8 -164.2L119.6 -169.2L133.5 -181.8L136.8 -178.8ZM-26.1 -10.6L-23.8 -9.9L-23.0 -2.5L-23.7 -0.2L-29.4 -7.7ZM-20.8 -41.9L-27.8 -10.4L-30.8 -9.2L-29.2 -10.3L-31.5 -10.4L-32.3 -13.4L-30.3 -17.2L-31.4 -17.7L-29.6 -28.2L-27.7 -26.7L-27.2 -29.5L-29.6 -28.8L-27.9 -41.0L-22.0 -40.3ZM88.3 -8.1L96.9 -1.6L92.8 -0.9L99.5 44.2L77.8 42.6L75.6 28.1L67.4 29.3L66.2 21.2L74.4 20.0L73.1 11.9L66.5 12.9L65.0 3.7L71.7 2.3L71.0 -1.8L77.0 -7.0L81.2 -2.0ZM69.8 -221.3L66.6 -215.7L45.2 -227.4L48.2 -232.7ZM6.4 -7.4L15.2 -1.5L15.1 16.4L18.3 17.3L15.8 23.8L-1.8 17.5L-2.9 16.7L-1.6 13.0L-5.0 11.5L-4.0 9.4L-0.4 11.1L1.0 8.0L-0.7 6.5L2.1 6.3L-1.7 4.6L-0.8 2.7L2.7 4.3L3.3 2.7L-0.0 1.2L0.9 -0.7L4.7 0.5L5.5 -1.9L3.1 -3.3ZM48.9 -16.0L49.7 -10.8L54.2 -7.6L51.2 -11.2L51.2 -15.6L52.7 -15.0L54.7 -9.4L63.1 -0.5L60.6 7.4L51.0 8.6L50.5 4.8L32.5 3.9L32.1 -2.8L35.3 -13.3L38.1 -6.6L40.1 -10.4L38.5 -6.2L39.8 -4.8L41.1 -6.5L40.0 -4.3L42.4 -3.5L40.5 0.9L43.2 -2.9L46.0 -0.4L44.7 -3.7L48.7 0.0L45.3 -6.0L50.9 -1.1L45.3 -7.4L51.7 -3.8L42.3 -13.4L45.8 -13.6L43.0 -17.7L48.2 -12.9L46.2 -20.0ZM29.3 -12.2L31.7 -13.0L31.7 -12.8ZM35.1 -13.0L34.9 -13.1L35.1 -13.0ZM130.3 -20.7L147.1 -7.6L145.3 -5.2L149.0 -2.3L147.1 0.1L159.7 9.5L157.1 12.9L164.7 18.8L160.0 25.2L114.8 -8.3L112.3 -7.0L110.2 -16.5ZM110.2 -16.5L112.3 -7.0L114.8 -8.3L158.7 24.6L160.0 25.2L163.8 20.3L166.1 26.0L164.9 26.7L172.7 38.9L171.7 42.8L166.0 45.0L162.4 42.5L160.0 45.7L102.5 2.5L93.5 3.9L92.8 -0.9L99.4 -2.4L98.4 -10.2L95.5 -9.8L93.8 -24.0L108.7 -29.4L112.9 -17.0ZM79.9 -245.2L97.1 -235.6L95.5 -232.6L92.9 -234.1L91.3 -231.3L89.8 -228.5L92.4 -227.1L84.7 -213.2L67.3 -222.5L69.6 -226.8L69.7 -232.3L75.1 -242.1L77.4 -240.8ZM109.5 -299.6L108.1 -292.3L110.4 -262.9L109.3 -257.8L101.7 -243.9L107.1 -240.9L102.5 -232.6L79.9 -245.2L84.7 -252.4L89.9 -266.8L91.5 -265.9L101.3 -282.3L102.3 -285.4L99.8 -286.8L102.3 -292.2ZM84.7 -213.2L45.0 -141.4L30.6 -150.6L69.8 -221.3ZM4.2 -31.0L12.4 -31.7L13.5 -21.0L1.3 -17.5L-6.1 -25.3L-9.8 -26.4L0.1 -39.6L6.6 -35.7ZM182.0 -339.1L176.3 -334.2L175.5 -332.4L176.7 -331.6L173.2 -322.6L178.6 -321.8L174.5 -314.5L172.4 -315.8L157.6 -284.0L149.3 -287.6L157.8 -307.5L158.7 -318.6L164.5 -317.7L181.7 -355.4L183.0 -354.4L181.6 -352.1ZM29.4 -148.3L14.0 -120.4L4.5 -125.6L19.9 -153.5ZM5.5 -161.7L19.9 -153.5L7.5 -131.2L-6.3 -139.9L-1.6 -139.5L-5.2 -142.4L0.1 -139.5L1.4 -141.3L-3.4 -145.0L2.4 -143.0L2.9 -144.2L-2.6 -147.3L3.2 -144.9L4.4 -147.0L-1.1 -150.1L4.7 -147.7L5.9 -149.8L0.4 -152.9L4.9 -151.2L5.7 -152.7L2.1 -155.8L6.1 -153.6L6.8 -157.2L8.4 -157.2L4.8 -159.6L9.3 -159.2ZM21.5 -1.4L21.7 3.3L32.5 5.6L34.7 14.3L29.2 14.0L30.9 22.2L15.1 16.4L15.1 -1.7ZM34.9 -13.1L32.1 -2.8L32.5 5.6L21.7 3.3L22.0 -1.4L15.1 -1.7L7.6 -7.2L10.8 -10.2L15.1 -8.9L16.3 -10.9ZM14.0 -120.4L-4.2 -87.5L-13.7 -92.7L4.5 -125.6ZM147.3 -281.1L147.9 -274.7L141.1 -276.7L124.8 -259.6L121.2 -260.8L133.7 -290.3L143.9 -305.4L146.9 -315.0L158.2 -313.6L157.8 -307.5L149.3 -287.6L151.8 -286.5ZM121.4 -214.3L120.6 -213.9L120.6 -214.1ZM122.3 -220.3L121.6 -221.2L122.3 -220.4ZM122.5 -220.7L122.2 -220.9L122.5 -220.7ZM122.6 -221.4L121.7 -221.4L121.9 -221.8ZM110.4 -262.9L109.9 -239.0L118.4 -222.4L118.4 -212.9L116.6 -208.3L108.3 -201.7L103.8 -204.2L102.3 -201.4L94.6 -205.7L96.9 -209.9L86.2 -215.9L92.4 -227.1L89.8 -228.5L92.9 -234.1L95.5 -232.6L97.1 -235.6L102.5 -232.6L107.1 -240.9L101.7 -243.9L110.0 -259.2L109.4 -263.3ZM94.6 -205.7L102.3 -201.4L103.8 -204.2L108.3 -201.7L104.9 -196.6L106.4 -195.4L104.8 -196.2L100.4 -187.6L94.2 -182.3L73.8 -193.4L86.2 -215.9L96.9 -209.9ZM27.1 -47.4L12.3 -53.1L16.8 -75.8L36.6 -64.8ZM113.8 -61.7L119.3 -58.6L124.1 -44.1L125.4 -44.6L125.9 -42.6L125.2 -40.5L118.6 -39.0L117.2 -37.5L117.6 -34.6L113.1 -32.9L114.7 -30.2L112.4 -28.7L113.4 -25.5L111.3 -24.2L113.6 -24.9L116.2 -19.2L114.2 -26.1L115.5 -26.8L113.7 -27.6L116.0 -29.0L115.0 -32.1L119.4 -34.2L119.6 -37.6L125.8 -39.5L128.3 -36.0L125.3 -33.6L126.2 -31.1L132.2 -23.2L130.3 -20.7L112.9 -17.0L108.7 -29.4L93.8 -24.0L95.5 -9.8L98.4 -10.2L98.6 -8.6L99.4 -2.4L96.9 -1.6L83.0 -12.0L81.9 -20.9L85.6 -21.4L84.4 -30.9L77.6 -31.0ZM-8.4 -19.3L-3.3 -10.4L-5.5 -12.4L-5.0 -10.5L-6.1 -11.9L-7.7 -10.5L-5.8 -8.4L-8.9 -9.5L-7.1 -6.6L-9.4 -9.0L-11.0 -8.1L-8.8 -5.6L-9.2 -5.3L-11.3 -7.8L-13.0 -6.7L-16.5 -12.8L-20.9 -14.9L-15.1 -24.0ZM-16.5 -12.8L-12.7 -6.6L-15.5 -4.3L-12.7 -2.9L-14.4 -1.2L-16.0 -4.1L-18.6 -3.2L-18.1 -0.5L-18.6 -2.0L-22.8 -0.3L-23.8 -10.0L-22.1 -10.0L-20.9 -14.9ZM14.3 -98.6L5.3 -82.2L-4.2 -87.5L4.8 -103.9ZM50.5 4.8L51.5 23.2L49.8 23.1L52.2 39.6L37.6 35.1L31.8 24.4L27.2 22.0L30.9 22.2L29.2 14.0L34.7 14.3L32.5 3.9ZM26.5 -120.7L20.4 -109.5L10.9 -114.8L17.0 -125.9ZM29.4 -69.1L16.8 -75.8L26.6 -95.3L31.9 -92.3L28.9 -86.9L36.6 -82.6ZM62.8 -53.3L63.3 -52.5L62.6 -53.2ZM76.3 -86.0L89.2 -81.2L88.1 -77.8L88.3 -75.7L90.8 -80.5L91.4 -78.1L92.5 -79.8L96.1 -77.9L103.2 -65.4L113.0 -62.0L86.0 -40.6L84.9 -49.6L82.3 -47.8L80.6 -51.7L75.4 -49.4L69.3 -55.9L64.0 -56.9L64.3 -68.1L62.9 -72.4L59.9 -72.1L62.9 -72.9L64.1 -77.4L69.4 -83.8ZM14.4 -60.6L5.7 -65.0L7.4 -67.6L-0.1 -72.4L5.3 -82.2L16.8 -75.8ZM12.4 -53.2L-4.7 -62.4L-0.1 -72.4L7.4 -67.6L5.7 -65.0L14.1 -59.6ZM102.3 -285.4L91.5 -265.9L86.6 -268.6L85.8 -267.3L83.5 -268.6L82.0 -265.8L67.5 -272.0L72.9 -281.5L75.8 -281.3L83.1 -295.7ZM120.0 -319.9L137.9 -319.2L136.9 -312.9L139.8 -313.1L135.1 -304.4L126.8 -297.1L120.0 -285.4L111.6 -281.9L111.5 -297.4L119.1 -318.3ZM128.5 -349.5L129.6 -342.4L117.2 -319.5L109.5 -299.6L99.5 -287.0L99.7 -290.1L108.3 -306.5L107.5 -311.8L115.7 -326.7L117.2 -325.9L121.6 -333.2L120.6 -335.5L125.6 -345.4L124.8 -347.7L121.9 -346.5L121.6 -348.2L125.1 -355.2ZM-17.8 -64.0L-3.6 -61.7L-8.9 -48.0L-18.0 -56.7L-20.0 -53.5L-19.4 -56.9L-25.4 -58.0L-19.3 -58.2ZM130.6 -344.7L130.4 -343.9L129.5 -342.5ZM148.1 -380.6L149.4 -377.0L145.9 -366.3L141.9 -362.1L142.8 -361.2L140.3 -361.5L141.1 -358.8L134.3 -349.3L130.8 -352.2L130.3 -350.2L132.8 -348.0L128.7 -345.1L128.5 -349.6L118.9 -366.8L123.0 -370.7L131.2 -373.0L134.7 -376.2L133.9 -378.5L136.0 -380.6L143.4 -376.6ZM122.8 -390.7L129.1 -389.2L129.2 -383.3L131.5 -380.8L133.8 -381.9L131.9 -386.0L135.3 -384.2L134.6 -382.0L135.8 -381.0L137.5 -384.0L137.0 -382.6L141.4 -383.9L147.5 -381.2L143.4 -376.6L136.0 -380.6L133.9 -378.5L134.7 -376.2L131.2 -373.0L123.0 -370.7L118.9 -366.8L113.1 -374.2L118.1 -386.2ZM127.4 -393.7L127.3 -393.4L127.4 -393.7ZM166.8 -369.6L168.6 -373.2L172.5 -370.8L158.7 -349.1L153.8 -351.1L150.5 -345.8L149.2 -349.0L144.6 -351.2L151.6 -357.3L148.8 -355.6L143.1 -357.5L145.5 -358.7L149.4 -366.4L151.9 -378.7L154.3 -381.8L159.2 -379.5L159.4 -374.8L161.5 -372.1ZM47.2 -94.7L45.9 -78.8L42.6 -79.8L45.4 -78.1L44.1 -76.9L28.9 -86.9L36.5 -100.6ZM69.1 -128.7L63.4 -131.2L78.9 -159.1L87.6 -154.3ZM63.8 -131.7L55.7 -135.4L71.2 -163.4L78.9 -159.1ZM30.9 -149.0L19.9 -153.5L32.2 -175.8L41.7 -170.6ZM24.9 -179.9L32.2 -175.8L19.9 -153.5L6.3 -162.3L10.1 -161.0L18.6 -175.3L14.1 -175.1L18.5 -175.7L19.8 -179.1L23.9 -176.7ZM7.0 -36.6L2.4 -37.6L-3.1 -42.7L5.4 -56.0L12.3 -53.1ZM82.0 -121.6L103.2 -109.5L105.7 -106.0L94.4 -97.3L93.1 -94.3L104.6 -99.4L102.2 -83.9L97.7 -86.5L102.3 -93.6L100.0 -95.1L97.4 -87.7L90.9 -84.1L88.1 -83.4L77.0 -87.6L71.0 -87.0L65.5 -83.8L62.4 -85.1L64.6 -89.0L63.5 -89.9L64.7 -93.8L67.1 -95.7L65.6 -97.1L68.8 -98.0L67.3 -99.5L69.2 -99.0L67.8 -100.2L69.4 -100.6L68.4 -101.3L72.1 -107.4L78.1 -105.0L72.6 -108.0L74.9 -109.2ZM105.5 -108.1L93.3 -115.1L105.4 -131.7L126.5 -118.7L124.0 -114.7L110.4 -113.5ZM27.0 -47.2L24.9 -42.0L22.1 -43.1L16.3 -31.7L4.2 -31.0L12.3 -53.1ZM60.5 -204.6L57.9 -204.2L39.4 -216.2L45.2 -227.4L66.6 -215.7ZM67.5 -271.9L82.0 -265.8L83.5 -268.6L89.9 -266.8L84.7 -252.4L79.9 -245.2L73.9 -251.1L72.9 -249.4L67.6 -257.4L63.3 -259.8L68.7 -267.3L67.4 -270.6L69.2 -268.1L70.2 -270.1ZM155.1 -389.2L153.9 -380.3L151.9 -378.7L148.6 -383.1L140.5 -386.6L149.6 -393.9ZM166.1 -76.2L185.9 -76.0L188.3 -54.2L183.0 -54.8L176.4 -50.9L173.8 -52.6L166.6 -51.3L167.1 -46.7L171.1 -47.4L171.2 -45.0L165.7 -43.5L166.2 -39.6L169.5 -42.2L171.3 -39.9L168.4 -38.2L171.0 -36.0L158.8 -28.3L156.1 -38.2L150.7 -39.1L145.4 -33.8L149.8 -30.4L148.8 -29.0L126.7 -30.8L127.6 -34.4L132.4 -34.7L129.5 -36.5L147.9 -43.2L143.7 -50.4L158.1 -63.7ZM-13.0 -92.3L-8.6 -89.9L-11.8 -63.3L-24.0 -62.6L-23.5 -67.5L-18.6 -67.0L-18.3 -71.1L-18.2 -72.6L-23.3 -73.3L-17.9 -73.6L-20.0 -74.9L-18.0 -75.4L-17.5 -83.7L-18.6 -84.5L-17.3 -86.2L-20.6 -87.5L-19.1 -89.3L-20.3 -89.3L-21.1 -89.6L-15.8 -89.6L-20.2 -91.9ZM147.0 -268.7L150.3 -269.6L164.6 -265.0L159.3 -247.0L137.3 -255.4L132.6 -252.0L131.4 -255.7L128.3 -256.7L126.8 -254.0L122.4 -255.5L129.0 -265.1L138.8 -273.7L140.3 -273.0L139.7 -271.6ZM48.0 -134.1L36.1 -115.3L26.5 -120.7L37.2 -140.0ZM55.7 -135.4L42.6 -111.7L36.1 -115.3L50.4 -138.4ZM31.1 -149.2L44.0 -142.1L50.4 -138.4L48.0 -134.1L37.2 -140.0L35.7 -137.3L26.2 -142.5ZM31.9 -105.1L26.6 -95.3L15.8 -101.3L26.5 -120.7L31.9 -117.7L26.6 -108.0ZM71.6 -251.5L79.9 -245.2L77.4 -240.8L75.1 -242.1L69.7 -232.3L69.6 -226.8L67.3 -222.5L48.2 -232.7L63.3 -259.8L67.6 -257.4ZM173.0 -293.8L171.5 -286.8L183.6 -286.3L190.0 -280.8L187.0 -278.8L175.4 -277.7L174.3 -282.1L165.2 -281.4L164.0 -277.8L165.9 -277.2L163.5 -269.4L165.8 -268.6L164.6 -265.0L150.3 -269.6L147.1 -268.5L138.8 -273.7L141.1 -276.7L147.9 -274.7L147.3 -281.1L151.8 -286.5L157.6 -284.0L164.7 -298.1L171.8 -295.6ZM171.9 -210.4L170.2 -210.4L168.1 -212.3L170.3 -213.7ZM172.7 -221.7L166.4 -218.4L166.7 -222.0L169.6 -225.3ZM126.8 -254.1L128.3 -256.7L131.4 -255.7L132.6 -252.0L137.3 -255.4L159.3 -247.0L161.1 -245.3L163.0 -230.0L147.3 -212.6L135.0 -217.8L128.5 -225.2L120.7 -225.9L120.7 -228.8L118.9 -229.0L112.5 -239.4L112.7 -251.1L116.3 -249.1L121.2 -260.8L124.8 -259.6L122.4 -255.5ZM169.8 -341.3L169.1 -338.6L171.6 -341.4L174.1 -340.1L164.5 -317.7L158.7 -318.6L158.4 -313.3L149.3 -314.1L138.6 -319.3L143.2 -319.4L157.5 -342.7L163.7 -340.1L165.5 -343.3ZM48.0 -103.2L44.2 -96.3L36.5 -100.6L31.9 -92.3L26.6 -95.3L31.9 -105.1L26.6 -108.0L31.9 -117.7L42.6 -111.7L40.3 -107.5ZM111.9 -171.5L117.0 -167.7L120.4 -168.7L137.3 -154.9L133.5 -150.6L135.9 -149.0L133.8 -145.5L129.8 -148.0L126.3 -142.4L111.0 -151.4L108.5 -147.4L106.4 -148.9L109.7 -156.3L104.3 -159.6L104.0 -165.2L108.3 -171.5ZM20.4 -109.5L14.3 -98.6L4.8 -103.9L10.9 -114.8ZM109.7 -156.3L106.9 -149.1L102.4 -147.0L106.7 -144.9L105.1 -141.3L110.1 -138.2L93.3 -115.1L82.0 -121.6L97.9 -147.2L107.2 -152.6L108.4 -156.6ZM139.4 -214.9L143.8 -206.4L138.7 -198.8L135.8 -197.3L126.6 -181.6L119.9 -178.0L106.8 -184.7L107.2 -188.5L115.3 -200.2L123.3 -199.6L123.2 -201.8L122.5 -202.1L124.1 -202.2L122.2 -202.2L122.5 -200.2L120.3 -200.1L121.5 -202.2L119.6 -204.8L121.9 -210.1L121.3 -217.6L124.3 -224.3L129.0 -224.1L132.9 -218.6ZM150.7 -39.1L156.1 -38.2L157.8 -28.3L200.0 -27.8L204.1 -15.8L184.9 -12.3L175.1 0.6L174.2 6.3L169.5 8.5L164.7 18.8L157.1 12.9L159.7 9.5L147.1 0.1L149.0 -2.3L145.3 -5.2L147.1 -7.6L130.3 -20.7L132.2 -23.2L126.7 -30.8L148.8 -29.0L149.8 -30.4L145.4 -33.8ZM99.5 -155.1L79.2 -125.6L64.1 -108.7L68.4 -117.9L92.2 -153.5L99.9 -160.4ZM-8.3 -26.4L1.3 -17.5L-2.0 -15.1L-1.0 -12.0L-2.4 -10.7L-8.4 -19.3L-15.1 -24.0ZM-2.5 -43.6L-9.0 -48.5L-3.6 -61.7L5.4 -56.0ZM70.2 -18.5L88.3 -8.1L81.2 -2.0L77.0 -7.0L71.0 -1.8L71.7 2.3L62.0 4.3L63.1 -0.5L54.7 -9.4L52.7 -15.0L61.2 -17.0L69.3 -16.0ZM150.3 -200.1L166.2 -195.8L173.6 -188.4L168.9 -182.1L164.9 -182.0L162.5 -176.6L164.6 -180.1L169.0 -180.4L176.2 -185.3L173.4 -182.9L175.5 -181.0L174.4 -179.8L174.5 -179.6L175.8 -181.0L174.5 -179.6L174.7 -179.4L176.5 -181.4L178.4 -180.1L178.9 -182.5L180.7 -180.8L178.4 -180.0L180.7 -177.9L179.2 -175.0L181.5 -172.8L179.3 -170.3L181.1 -167.9L180.4 -164.7L182.9 -161.1L184.4 -161.8L187.3 -147.0L177.6 -145.1L137.4 -153.8L126.8 -164.2L128.4 -165.8L127.2 -168.4L136.8 -178.8L133.5 -181.8L138.1 -185.2L145.8 -196.6ZM41.5 -77.9L44.3 -68.8L47.5 -64.6L47.3 -58.6L29.1 -69.0L35.9 -80.9ZM150.3 -108.0L147.0 -106.1L146.0 -101.0L148.0 -100.7L146.9 -93.2L143.8 -93.5L142.7 -89.2L140.6 -89.7L138.6 -78.0L135.0 -70.4L137.9 -69.0L136.8 -62.7L146.7 -62.7L147.2 -65.8L154.9 -60.3L143.7 -50.4L147.9 -43.2L129.5 -36.5L124.8 -49.1L126.1 -51.9L132.8 -52.1L125.3 -53.9L118.0 -62.2L103.3 -67.1L97.4 -78.9L90.2 -82.5L97.7 -86.5L102.2 -83.9L104.6 -99.4L93.1 -94.3L93.4 -96.0L105.7 -106.0L104.4 -107.6L110.4 -113.5L141.0 -118.3L149.5 -116.0L151.0 -111.7ZM68.8 -128.2L58.7 -113.5L48.0 -121.4L55.7 -135.4ZM35.7 -137.3L26.5 -120.7L17.0 -125.9L26.2 -142.5ZM-18.4 -56.7L0.1 -39.6L-8.1 -27.4L-13.9 -25.0L-22.9 -30.1L-20.8 -41.9L-24.3 -44.6L-21.6 -44.7ZM27.0 -47.2L44.2 -41.5L39.8 -27.4L37.0 -23.4L19.4 -20.1L18.8 -21.9L13.4 -21.1L12.4 -31.7L16.3 -31.7L22.1 -43.1L24.9 -42.0ZM59.8 -103.0L59.1 -102.2L59.8 -103.1ZM48.0 -121.4L58.7 -113.5L48.0 -95.5L44.2 -96.3L48.0 -103.2L40.3 -107.5ZM16.7 -76.8L5.3 -82.2L15.8 -101.3L26.6 -95.3ZM151.7 -357.9L144.6 -351.2L149.2 -349.0L150.5 -345.8L153.8 -351.1L155.5 -350.6L158.7 -349.1L157.4 -346.3L159.0 -345.5L143.2 -319.4L120.0 -319.9L130.9 -339.9L143.1 -357.5L148.8 -355.6ZM84.5 -187.4L69.6 -160.5L58.9 -166.5L73.8 -193.4ZM69.6 -160.5L55.7 -135.4L45.0 -141.4L58.9 -166.5ZM59.8 -203.2L51.1 -187.6L30.2 -199.1L39.4 -216.2ZM30.2 -199.1L51.1 -187.6L41.7 -170.6L24.9 -179.9L23.9 -176.7L19.8 -179.1L24.2 -187.8L23.1 -189.4L21.5 -187.5L23.1 -189.7L24.3 -187.9L23.7 -189.6L25.6 -190.4L23.4 -190.3L25.7 -190.5ZM112.8 -373.5L121.3 -364.2L125.5 -355.5L121.6 -348.2L121.9 -346.5L124.8 -347.7L125.6 -345.0L120.6 -335.5L121.7 -334.8L121.0 -331.5L114.4 -324.3L106.1 -329.0L107.2 -330.4L96.7 -334.2L94.8 -329.6L88.5 -331.2L97.0 -338.5L112.6 -368.3ZM96.7 -334.2L107.2 -330.4L106.1 -329.0L114.4 -324.3L107.5 -311.8L108.3 -306.5L99.7 -290.1L99.5 -287.0L83.1 -295.7L89.9 -316.6L88.5 -331.0L94.8 -329.6ZM-7.3 -137.9L-3.7 -135.8L-2.6 -137.8L7.5 -131.2L-13.7 -92.7L-20.2 -95.8L-15.9 -96.1L-14.6 -98.7L-19.7 -99.3L-19.5 -101.2L-15.8 -100.7L-19.2 -103.4L-15.2 -104.2L-18.9 -105.6L-15.1 -105.1L-14.9 -106.5L-18.7 -107.1L-16.6 -107.7L-15.9 -109.9L-18.0 -110.7L-15.4 -110.0L-14.2 -114.1L-15.6 -115.2L-14.1 -114.7L-16.7 -116.2L-16.6 -116.5L-13.9 -115.2L-8.0 -127.2L-11.7 -130.3L-10.8 -131.8L-6.5 -130.6L-7.2 -131.8L-3.9 -135.4ZM146.9 -315.0L143.7 -305.0L133.7 -290.3L118.7 -252.7L116.3 -249.1L112.7 -251.1L111.6 -281.9L119.3 -284.6L126.8 -297.1L135.1 -304.4L139.8 -313.1L136.9 -312.9L137.9 -319.2ZM5.3 -82.2L-4.7 -62.4L-11.8 -63.3L-8.6 -89.9ZM63.8 -55.5L70.5 -53.4L75.4 -49.4L80.6 -51.7L82.3 -47.8L84.9 -49.6L86.0 -40.6L88.0 -40.8L76.2 -31.0L74.3 -27.0L54.4 -36.3L55.7 -39.5L54.5 -40.3L55.8 -39.7L56.9 -41.3L55.7 -42.1L55.8 -42.3L57.5 -41.6L57.8 -44.2L59.5 -44.4L58.3 -47.0L60.0 -46.1L61.7 -48.5ZM54.4 -36.3L74.3 -27.0L76.2 -31.0L84.4 -30.9L85.6 -21.4L81.9 -20.9L83.0 -12.0L70.2 -18.5L69.3 -16.0L61.2 -17.0L52.7 -15.0L50.3 -17.6L50.0 -23.0ZM160.8 -144.7L164.3 -131.2L169.0 -131.8L167.2 -124.7L175.4 -101.3L175.3 -97.4L165.8 -86.9L151.3 -80.1L149.0 -73.6L156.3 -71.3L158.2 -78.9L165.0 -74.6L154.9 -60.3L147.2 -65.8L146.7 -62.7L136.8 -62.7L137.9 -69.0L135.0 -70.4L138.6 -78.0L139.2 -85.7L140.6 -89.7L142.7 -89.2L143.8 -93.5L146.9 -93.2L148.0 -100.7L146.0 -101.0L146.9 -105.8L149.8 -106.7L151.0 -111.4L149.0 -116.6L151.8 -119.4L156.3 -131.7L153.8 -133.1ZM-22.2 -11.1L-27.8 -10.6L-22.9 -30.1L-14.3 -25.1ZM93.8 -182.2L96.6 -169.2L95.2 -164.3L87.6 -154.3L78.9 -159.1L92.2 -183.1ZM102.9 -179.0L104.1 -177.0L100.8 -175.1ZM92.2 -183.1L78.9 -159.1L71.2 -163.4L84.5 -187.4Z"/></svg>